<?xml version="1.0" encoding="utf-8"?>
<!-- Generator: Adobe Illustrator 22.0.1, SVG Export Plug-In . SVG Version: 6.00 Build 0)  -->
<svg version="1.1" id="Layer_1" xmlns="http://www.w3.org/2000/svg" xmlns:xlink="http://www.w3.org/1999/xlink" x="0px" y="0px"
	 viewBox="0 0 349 175" style="enable-background:new 0 0 349 175;" xml:space="preserve">
<style type="text/css">
	.st0{fill:#F2E5AD;}
</style>
<g>
	<g>
		<path class="st0" d="M206.7,123.6l3.4,0l4.3,12.9l4.3-12.9l3.4,0l3.1,18.5h-3.4l-2-11.7l-3.9,11.7h-3.1l-3.9-11.7l-2,11.7l-3.4,0
			L206.7,123.6z"/>
		<path class="st0" d="M236.4,123.6l3.6,0l7.1,18.5h-3.7l-1.5-3.8l-7.6,0l-1.5,3.8l-3.7,0L236.4,123.6z M238.2,128.5l-2.5,6.4l5,0
			L238.2,128.5z"/>
		<path class="st0" d="M252.4,123.6l3.4,0l7.9,12.2l0-12.2l3.5,0l0,18.5l-3.4,0L256,130l0,12.2l-3.5,0L252.4,123.6z"/>
		<path class="st0" d="M279.8,123.6l3.6,0l7.1,18.5l-3.7,0l-1.5-3.8l-7.6,0l-1.5,3.8l-3.7,0L279.8,123.6z M281.6,128.5l-2.5,6.4l5,0
			L281.6,128.5z"/>
		<path class="st0" d="M312.9,126.6l-2.5,2.5c-1.6-1.7-3.4-2.5-5.5-2.5c-1.8,0-3.4,0.6-4.6,1.8c-1.2,1.2-1.8,2.7-1.8,4.4
			c0,1.8,0.6,3.3,1.9,4.5s2.9,1.9,4.7,1.9c1.2,0,2.2-0.3,3.1-0.8s1.5-1.3,2-2.4l-5.4,0l0-3.3l9.3,0l0,0.8c0,1.6-0.4,3.2-1.3,4.6
			c-0.8,1.5-1.9,2.6-3.3,3.3c-1.3,0.8-2.9,1.1-4.7,1.1c-1.9,0-3.6-0.4-5.1-1.3s-2.7-2-3.6-3.6s-1.3-3.2-1.3-5c0-2.5,0.8-4.6,2.4-6.4
			c1.9-2.2,4.4-3.2,7.5-3.2c1.6,0,3.1,0.3,4.5,0.9C310.6,124.5,311.7,125.4,312.9,126.6z"/>
		<path class="st0" d="M320,123.6l10.1,0l0,3.5l-6.6,0l0,3.4l6.6,0l0,3.4l-6.6,0l0,4.9l6.6,0l0,3.5l-10.1,0L320,123.6z"/>
		<path class="st0" d="M336.3,123.6l3.7,0c2,0,3.5,0.2,4.4,0.5c0.9,0.4,1.6,1,2.1,1.8c0.5,0.8,0.8,1.9,0.8,3c0,1.2-0.3,2.2-0.9,3.1
			c-0.6,0.8-1.5,1.4-2.6,1.9l4.4,8.2h-3.9l-4.2-7.9h-0.3l0,7.9l-3.5,0L336.3,123.6z M339.8,130.8h1.1c1.1,0,1.9-0.1,2.3-0.4
			c0.4-0.3,0.6-0.8,0.6-1.5c0-0.4-0.1-0.8-0.3-1.1c-0.2-0.3-0.5-0.5-0.8-0.6c-0.4-0.1-1-0.2-1.9-0.2l-1,0L339.8,130.8z"/>
	</g>
	<g>
		<path class="st0" d="M241.3,101.9c0,4.7-2.3,7.1-7,7.1h-23.3c-4.7,0-7-2.4-7-7.1V83.4h11.6v15.8h14.2V84l-23.2-22
			c-1.7-1.6-2.5-3.7-2.5-6.2V38.6c0-4.8,2.3-7.1,7-7.1h23.3c4.7,0,7,2.3,7,7v17.3h-11.6V41.2h-14.2v14l23.2,21.9
			c1.7,1.6,2.5,3.7,2.5,6.3V101.9z"/>
		<path class="st0" d="M298.8,101.9c0,4.7-2.4,7.1-7.1,7.1h-24.2c-4.6,0-6.9-2.4-6.9-7.1V38.6c0-4.8,2.3-7.1,6.9-7.1h24.2
			c4.7,0,7.1,2.4,7.1,7.1v18.1h-11.5V41.4h-15V99h15V82.7h11.5V101.9z"/>
		<path class="st0" d="M348.5,109H318V31.5h11.6v67.2h18.9V109z"/>
	</g>
	<g>
		<path class="st0" d="M100.5,87.1C100.5,87.1,100.5,87.1,100.5,87.1c3.2-0.5,6.5-1,9.7-1.2c15.9-2.7,28.6-8,35-14.7l0,0
			c0,0,0,0,0,0c0.1-0.1,0.2-0.2,0.3-0.3c0.4-0.4,0.7-0.8,1-1.2c0-0.1,0.1-0.1,0.1-0.2c0.4-0.5,0.7-0.9,1-1.4
			c-0.8-0.2-1.6-0.3-2.4-0.5l0,0c-7-1.3-15.1-2.4-24-3.2c-0.7,4.8-3.2,8-3.2,8l-2.7-17.4l-3.6-23.2c-0.2-1.2-0.8-2.2-1.6-2.9
			C107,43.1,97.9,55.1,85.5,62.1c0,0,0,0,0,0c-9.7-0.1-18.9-1.2-27-3.1l0,0l-0.3,2.1l-0.7,4.6c6,1.5,12.7,2.5,19.8,3.1
			c2.4,0.2,4.8,0.3,7.2,0.3c0.9,0,1.9,0,2.9,0s1.9,0,2.9,0c1.6,0,3.2-0.1,4.7-0.2c0.3,0,0.6,0,0.9,0c1.4-0.1,2.8-0.2,4.1-0.3
			c0.4,0,0.8-0.1,1.2-0.1c3.2-0.3,6.2-0.7,9.2-1.3c-1.4,1.4-2.9,2.7-4.3,4c0,0,0,0,0,0c-0.2,0.1-0.3,0.3-0.5,0.4
			c-0.1,0.1-0.3,0.3-0.4,0.4c-0.5,0.4-0.9,0.8-1.4,1.1c-0.1,0-0.1,0.1-0.2,0.1c0,0,0,0,0,0c-10.3,8.4-19.6,12.5-19.6,12.5
			c-12.6-0.3-24.5-2.1-34.4-5.4c-8.1-2.6-15.8-5.8-20.2-9.6l0,0c0,0,0,0,0,0c-0.3-0.2-0.5-0.4-0.7-0.7c-0.1-0.1-0.2-0.2-0.3-0.3
			c-0.2-0.2-0.3-0.3-0.5-0.5c-0.1-0.1-0.2-0.2-0.2-0.3c-0.2-0.3-0.4-0.5-0.6-0.8c0.3,0.5,0.6,0.9,1,1.4c0.1,0.1,0.2,0.2,0.3,0.3
			c8.4,10.4,31.7,17.9,59.2,17.9C91.8,87.7,96.2,87.5,100.5,87.1z"/>
		<path class="st0" d="M84.3,121.6l2.5,4l0.4,0.7l2.9-4.7c0.2-0.4,0.5-0.8,0.8-1.2c0.3-0.4,0.6-0.8,0.9-1.1c0,0,0.1-0.1,0.1-0.1
			c0,0,0,0,0,0c0.3-0.4,0.7-0.7,1.1-1c0.4-0.3,0.8-0.6,1.1-0.9c0.4-0.3,0.8-0.6,1.3-0.8c0.9-0.5,1.8-0.9,2.7-1.2
			c0.5-0.2,1-0.3,1.5-0.4l11.8-2.8l2.1-0.5l6.6-1.6l2.6-17l-13.3,7.8c-3.5,2-7.6,2.8-11.5,2c-3.2-0.7-7.1-2.1-10.7-4.9V108
			c0,4-1.3,7.4-3,10.2c-2.3-2.6-5.4-4.5-8.9-5.3l-9.4-2.2l-5.1-1.2l-5.4-1.3l-6.8-1.6l-1.8-11.8l-1.8,1.9L43,98.8
			c-0.6,0.6-1,1.4-1,2.3c0,0,0,0,0,0c-0.1,3.3,2.2,6.4,5.6,7.2l0.8,0.2l5.9,1.4l1.1,0.3l0.3,0.1l5.2,1.2l13.9,3.3
			C78.7,115.7,82.2,118.2,84.3,121.6z"/>
		<path class="st0" d="M174.4,104.3V71.4l-17.7-2.6l1.6-2.5l2.3-3.7l-4.3-0.9l-7.1-1.4c0,0,0,0,0,0c-0.6-0.1-1.3-0.3-1.9-0.4
			c-0.6-0.1-1.3-0.2-1.9-0.4l-0.4-0.7l15.5-21l-23.3-23.3L119,28.1c-0.1-0.4-0.3-0.7-0.4-1c0,0,0-0.1-0.1-0.1
			c-0.2-0.3-0.3-0.7-0.5-1c0-0.1-0.1-0.2-0.1-0.2c-0.2-0.3-0.4-0.6-0.6-0.9c-0.1-0.1-0.1-0.1-0.2-0.2c-0.2-0.3-0.5-0.6-0.7-0.9
			c0,0-0.1-0.1-0.1-0.1c-1.2-1.3-2.7-2.3-4.3-3c0,0,0,0,0,0c0,0,0,0,0,0c0,0,0,0-0.1,0c-0.4-0.2-0.8-0.3-1.2-0.4c0,0,0,0-0.1,0
			c0,0,0,0,0,0c-0.3-0.1-0.6-0.2-0.9-0.2c0,0,0,0,0,0c-0.1,0-0.2-0.1-0.3-0.1c0,0,0,0,0,0c-0.3-0.1-0.6-0.1-0.9-0.1c0,0,0,0,0,0
			c-0.1,0-0.2,0-0.3,0c0,0,0,0,0,0c-0.4,0-0.8-0.1-1.3-0.1c0,0,0,0,0,0c-0.1,0-0.1,0-0.2,0l-2.8-19H70.9l-2.8,19c-0.2,0-0.3,0-0.5,0
			c0,0,0,0,0,0c-0.4,0-0.8,0-1.3,0.1c0,0,0,0,0,0c-0.1,0-0.2,0-0.3,0c0,0,0,0,0,0c-0.3,0-0.6,0.1-0.9,0.1v0c-0.1,0-0.2,0.1-0.3,0.1
			c0,0,0,0,0,0c-0.3,0.1-0.6,0.1-0.9,0.2c-0.1,0-0.2,0.1-0.2,0.1c0,0,0,0,0,0c-0.3,0.1-0.6,0.2-0.8,0.3c-0.1,0-0.2,0.1-0.3,0.1
			c0,0,0,0,0,0c-2.6,1.1-4.8,3.1-6.2,5.6l0,0c-0.1,0.2-0.2,0.3-0.2,0.5c-0.1,0.2-0.2,0.3-0.2,0.5c-0.1,0.2-0.2,0.4-0.3,0.7
			L37.3,14.3L14.1,37.5l15.5,20.9c0,0,0,0.1-0.1,0.1c0,0,0,0,0,0L29,59.5c0,0,0,0,0,0c-0.6,0.1-1.2,0.2-1.9,0.3
			c-0.7,0.1-1.3,0.3-2,0.4l-7.1,1.4l-4.3,0.9l2.3,3.7l1.4,2.2L0,71.1v32.9l25.6,3.8c1,3.1,2.2,6,3.7,8.9l-15.5,20.9l23.3,23.3
			l20.7-15.3c2.9,1.5,5.9,2.7,9,3.8l3.8,25.6h32.9l3.8-25.5c3.1-1,6.1-2.3,9-3.7l20.8,15.4l23.3-23.3L145,117
			c1.5-2.9,2.7-5.9,3.7-8.9L174.4,104.3z M120.5,35.9c8.9,5.7,16.2,13.7,21.2,23c-0.5-0.1-1-0.1-1.4-0.2l0,0
			c-1.6-0.2-3.2-0.5-4.8-0.7c-3.7-5.9-8.4-11.1-13.9-15.3L120.5,35.9z M83.8,7.9h6.8v15.9l-3.4,1l-3.4-1V7.9z M32.6,58.9
			c5-9.4,12.3-17.3,21.2-23.1l-1.1,6.9c-5.5,4.2-10.2,9.4-13.9,15.3C36.7,58.3,34.6,58.6,32.6,58.9z M143,114.3
			c-6.1,12.8-16.5,23.2-29.4,29.3c-1.9,0.9-3.8,1.7-5.8,2.4l0,0c-0.4,0.2-0.9,0.3-1.3,0.4c-0.4,0.1-0.7,0.2-1.1,0.4
			c-0.4,0.1-0.8,0.3-1.3,0.4c-0.4,0.1-0.8,0.2-1.2,0.3c-0.4,0.1-0.8,0.2-1.2,0.3c-0.8,0.2-1.5,0.4-2.3,0.5c-0.3,0.1-0.5,0.1-0.8,0.1
			c-0.6,0.1-1.2,0.2-1.8,0.3c-0.3,0-0.6,0.1-0.9,0.1c-0.6,0.1-1.2,0.2-1.8,0.2c-0.3,0-0.6,0.1-0.8,0.1c-0.9,0.1-1.8,0.2-2.6,0.2
			v17.9h-6.8v-17.9c-0.9,0-1.7-0.1-2.6-0.2c-0.3,0-0.6-0.1-0.9-0.1c-0.5-0.1-1.1-0.1-1.6-0.2c-0.4-0.1-0.8-0.1-1.2-0.2
			c-0.4-0.1-0.8-0.1-1.2-0.2c-0.5-0.1-0.9-0.2-1.4-0.3c-0.2,0-0.4-0.1-0.6-0.1c-2-0.4-3.9-0.9-5.8-1.6c-0.1,0-0.1,0-0.2-0.1
			c-0.7-0.2-1.4-0.5-2-0.7v0c-2-0.7-3.9-1.5-5.8-2.4l0,0c-0.8-0.4-1.6-0.8-2.4-1.2c0,0,0,0,0,0c-0.8-0.4-1.5-0.8-2.3-1.3
			c0,0,0,0-0.1,0c-0.7-0.4-1.5-0.9-2.2-1.4c0,0-0.1,0-0.1-0.1c-0.7-0.5-1.4-0.9-2.1-1.4c0,0-0.1-0.1-0.1-0.1c-0.7-0.5-1.3-1-2-1.5
			c-0.1,0-0.1-0.1-0.2-0.1c-0.6-0.5-1.3-1-1.9-1.5c-0.1,0-0.1-0.1-0.2-0.1c-0.6-0.5-1.2-1.1-1.8-1.6c-0.1-0.1-0.1-0.1-0.2-0.2
			c-0.6-0.5-1.1-1.1-1.7-1.6c-0.1-0.1-0.1-0.1-0.2-0.2c-0.5-0.6-1.1-1.1-1.6-1.7c-0.1-0.1-0.1-0.2-0.2-0.2c-0.5-0.6-1-1.2-1.5-1.8
			c-0.1-0.1-0.1-0.2-0.2-0.2c-0.5-0.6-1-1.2-1.5-1.8c-0.1-0.1-0.1-0.2-0.2-0.2c-0.5-0.6-0.9-1.3-1.4-1.9c-0.1-0.1-0.1-0.2-0.2-0.2
			c-0.5-0.6-0.9-1.3-1.3-2c0-0.1-0.1-0.1-0.1-0.2c-0.4-0.7-0.8-1.4-1.3-2.1c0-0.1-0.1-0.1-0.1-0.2c-0.4-0.7-0.8-1.4-1.2-2.2
			c0,0,0-0.1-0.1-0.1c-0.4-0.8-0.8-1.5-1.1-2.3c-0.9-1.9-1.6-3.8-2.3-5.7l0,0c-0.6-1.7-1.1-3.5-1.6-5.2c-0.1-0.2-0.1-0.5-0.2-0.7
			c-0.1-0.5-0.2-1-0.3-1.4c-0.1-0.7-0.3-1.4-0.4-2c-0.1-0.3-0.1-0.6-0.1-0.9c-0.1-0.6-0.2-1.1-0.3-1.7c0-0.3-0.1-0.5-0.1-0.8
			c-0.1-0.8-0.2-1.7-0.3-2.5c0-0.1,0-0.1,0-0.2c0-0.6-0.1-1.2-0.1-1.8H7.5v-6.8h18.1c0-0.3,0-0.6,0.1-1c0-0.3,0.1-0.7,0.1-1
			c0.2-2.2,0.5-4.4,0.9-6.7c-1.7-1.6-3.1-3.2-4.1-4.9l-3.9-6.1l7.1-1.4c8-1.6,17.3-2.9,27.6-3.8L57,35.8l0,0l0.8-4.9
			c0-0.2,0.1-0.5,0.1-0.7c0.1-0.2,0.1-0.4,0.2-0.6l0,0c0.2-0.7,0.5-1.4,0.8-2c1.3,1,2.8,1.9,4.2,2.8l0,0c6.2,3.6,13.5,5.7,21.2,5.7
			c6.6,0,12.8-1.5,18.4-4.2c-4.7,2.2-10,3.4-15.5,3.4c-7.3,0-14-2.1-19.7-5.7l0,0c-0.3-0.2-0.6-0.4-0.8-0.6l0,0
			c-0.5-0.3-0.9-0.6-1.4-1c0,0,0,0,0,0c0,0,0,0,0,0l0,0c-0.7-0.5-1.4-1.1-2.1-1.7c-1-0.9-0.7-2.5,0.5-3.1c1.2-0.5,2.5-0.8,3.9-0.8
			c0,0,0.1,0,0.1,0l0,0c0.4,0,0.9,0,1.3,0.1l0.4,0.1l0.4,0.1L83.8,27v0l3.4,1l14.4-4.3v0l3.1-0.9l0.4-0.1l0.4-0.1
			c0.5-0.1,0.9-0.1,1.4-0.1c4.6,0,8.5,3.1,9.6,7.4c0.1,0.3,0.2,0.7,0.2,1l0.8,4.9v0l3.7,23.5c10.3,0.9,19.5,2.2,27.5,3.8l7.1,1.4
			l-2.3,3.6l0,0l-1.6,2.5c-0.2,0.4-0.5,0.7-0.7,1.1c-0.1,0.1-0.2,0.3-0.3,0.4c-0.2,0.2-0.3,0.4-0.5,0.7c-0.1,0.2-0.3,0.3-0.4,0.5
			c-0.1,0.2-0.3,0.3-0.4,0.5c-0.2,0.2-0.3,0.4-0.5,0.5c-0.1,0.1-0.1,0.2-0.2,0.2c-0.8,0.8-1.6,1.6-2.5,2.3c0,0-0.1,0.1-0.1,0.1
			c-0.3,0.3-0.6,0.5-1,0.8c-4.3,3.3-9.9,6.2-16.4,8.5l-0.4,2.6c0.3,0.2,0.6,0.4,0.8,0.6l0.3,0.2l0.2,0.3l6.1,6.3l0.2,0.3
			c0.5,0.5,0.8,1.1,1,1.8l0.1,0.3c1.5,6.5-2.6,13.1-9.1,14.6l-13.4,3.2l-13.9,3.3c-2.3,0.6-4.4,1.9-5.8,3.8
			c-0.2,0.3-0.4,0.5-0.6,0.8l-2.9,4.6l-9.6,15.4c1.8,0.2,3.5,0.3,5.3,0.3c14.9,0,28.4-5.7,38.5-15.1c-0.5,0.4-1,0.9-1.5,1.3
			c0.5-0.4,1-0.9,1.5-1.3c6.5-6,11.5-13.5,14.7-21.9c0.1-0.2,0.2-0.5,0.3-0.7c0.2-0.6,0.4-1.2,0.6-1.8c0.1-0.2,0.2-0.5,0.2-0.7
			c1.6-5.3,2.5-10.8,2.5-16.6c0-1.8-0.1-3.6-0.3-5.4c1.1-0.7,2.1-1.5,3.1-2.1c0.1-0.1,0.2-0.1,0.2-0.2c0.5-0.4,0.9-0.7,1.3-1.1
			c0.2,1.7,0.4,3.5,0.5,5.2h18.1V91h-18.1c0,0.9-0.1,1.8-0.2,2.6c0,0.3-0.1,0.6-0.1,0.9c-0.1,0.6-0.1,1.1-0.2,1.7
			c-0.1,0.4-0.1,0.7-0.2,1.1c-0.1,0.5-0.2,1-0.2,1.4c-0.1,0.4-0.1,0.8-0.2,1.2c-0.1,0.3-0.1,0.6-0.2,0.9c-0.2,1-0.5,2-0.7,3
			c-0.1,0.2-0.1,0.4-0.2,0.7c-0.2,0.6-0.3,1.1-0.5,1.7c-0.1,0.2-0.1,0.4-0.2,0.5c-0.2,0.6-0.4,1.2-0.6,1.8l0,0
			C144.7,110.5,143.9,112.4,143,114.3z"/>
	</g>
</g>
</svg>
